# xmcd
# 
# Track frame offsets:
#     150
#     116724
#     137717
#     257390
# 
# Disc length: 3678
# 
# Revision: 0
# Processed by: cddbd v1.5.2PL0 Copyright (c) Steve Scherf et al.
# Submitted via: fre:ac v1.0.17
# 
DISCID=300e5c04
DTITLE=Pimsleur - Dutch Disc 07
DYEAR=0
DGENRE=
TTITLE0=Dutch Unit 13
TTITLE1=Dutch Unit 13 Readings
TTITLE2=Dutch Unit 14 
TTITLE3=Dutch Unit 14 Readings
EXTD=
EXTT0=
EXTT1=
EXTT2=
EXTT3=
PLAYORDER=
